<?xml version="1.0" standalone="no"?><!DOCTYPE svg PUBLIC "-//W3C//DTD SVG 1.1//EN" "http://www.w3.org/Graphics/SVG/1.1/DTD/svg11.dtd"><svg t="1782005848223" class="icon" viewBox="0 0 1024 1024" version="1.1" xmlns="http://www.w3.org/2000/svg" p-id="6780" xmlns:xlink="http://www.w3.org/1999/xlink" width="48" height="48"><path d="M597.333333 266.666667a32 32 0 0 1 64 0v256a32 32 0 0 1-64 0v-256z" fill="#409EFF" p-id="6781"></path><path d="M365.866667 253.354667A29.717333 29.717333 0 0 1 394.666667 234.666667l1.216-0.021334c12.16 0 23.082667 7.402667 27.584 18.688l104.234666 260.565334a29.717333 29.717333 0 1 1-55.168 22.08L445.866667 469.333333h-102.4l-26.666667 66.666667a29.717333 29.717333 0 1 1-55.168-22.08l104.234667-260.565333zM369.066667 405.333333h51.2l-25.6-64-25.6 64z" fill="#409EFF" p-id="6782"></path><path d="M85.333333 629.482667a85.333333 85.333333 0 0 0 85.333334 85.333333h68.394666v32.128a42.666667 42.666667 0 0 0 59.477334 39.210667l134.186666-57.536a170.645333 170.645333 0 0 1 67.264-13.802667H746.666667a85.333333 85.333333 0 0 0 85.333333-85.333333V170.666667a85.333333 85.333333 0 0 0-85.333333-85.333334H170.666667a85.333333 85.333333 0 0 0-85.333334 85.333334v458.816z m334.272 35.136l-116.544 49.962666a63.786667 63.786667 0 0 0-63.786666-63.786666H170.666667a21.333333 21.333333 0 0 1-21.333334-21.333334V170.666667a21.333333 21.333333 0 0 1 21.333334-21.333334h576a21.333333 21.333333 0 0 1 21.333333 21.333334v458.816a21.333333 21.333333 0 0 1-21.333333 21.333333H486.826667a170.666667 170.666667 0 0 0-67.221334 13.802667z" fill="#409EFF" p-id="6783"></path><path d="M874.666667 352a32 32 0 0 1 64 0v426.816a85.333333 85.333333 0 0 1-85.333334 85.333333h-68.394666v32.128a42.666667 42.666667 0 0 1-59.477334 39.210667l-134.186666-57.536a170.645333 170.645333 0 0 0-67.264-13.802667H480a32 32 0 1 1 0-64h57.173333a170.666667 170.666667 0 0 1 67.221334 13.802667l116.544 49.962667a63.786667 63.786667 0 0 1 63.786666-63.786667H853.333333a21.333333 21.333333 0 0 0 21.333334-21.333333V352z" fill="#409EFF" p-id="6784"></path></svg>